<svg width="250" height="45" viewBox="0 0 250 45" fill="none" xmlns="http://www.w3.org/2000/svg">
                    <g clip-path="url(#clip0)">
                        <rect width="250" height="45" fill="#BDBDBD" />
                        <path
                            d="M34.0719 31.325C33.1052 31.325 32.1719 31.1667 31.2719 30.85C30.3885 30.5333 29.6635 30.0417 29.0969 29.375C28.5302 28.6917 28.2302 27.8083 28.1969 26.725H29.3469C29.3469 26.775 29.3635 26.9333 29.3969 27.2C29.4302 27.45 29.5135 27.75 29.6469 28.1C29.7969 28.4333 30.0385 28.7667 30.3719 29.1C30.7219 29.4333 31.1969 29.7167 31.7969 29.95C32.3969 30.1667 33.1802 30.275 34.1469 30.275C35.0135 30.275 35.7052 30.175 36.2219 29.975C36.7552 29.7583 37.1552 29.5 37.4219 29.2C37.6885 28.9 37.8635 28.6083 37.9469 28.325C38.0469 28.025 38.1052 27.8 38.1219 27.65C38.1385 27.0167 37.9719 26.5083 37.6219 26.125C37.2885 25.725 36.8385 25.4083 36.2719 25.175C35.7219 24.925 35.1052 24.7167 34.4219 24.55C33.7552 24.3833 33.0802 24.2083 32.3969 24.025C31.7302 23.825 31.1135 23.575 30.5469 23.275C29.9969 22.975 29.5552 22.5833 29.2219 22.1C28.8885 21.6167 28.7385 20.9833 28.7719 20.2C28.8052 19.4667 29.0552 18.8417 29.5219 18.325C30.0052 17.7917 30.6385 17.3833 31.4219 17.1C32.2052 16.8167 33.0802 16.675 34.0469 16.675C34.9802 16.675 35.8385 16.8417 36.6219 17.175C37.4052 17.5083 38.0219 18.0083 38.4719 18.675C38.9385 19.3417 39.1552 20.175 39.1219 21.175H37.9969C38.0135 20.475 37.8802 19.9 37.5969 19.45C37.3302 19 36.9802 18.65 36.5469 18.4C36.1135 18.15 35.6635 17.9833 35.1969 17.9C34.7302 17.8 34.3135 17.75 33.9469 17.75C32.7969 17.75 31.8469 17.9917 31.0969 18.475C30.3469 18.9417 29.9635 19.5417 29.9469 20.275C29.9302 20.9083 30.0885 21.4167 30.4219 21.8C30.7719 22.1833 31.2219 22.4917 31.7719 22.725C32.3385 22.9417 32.9552 23.1333 33.6219 23.3C34.3052 23.4667 34.9802 23.6417 35.6469 23.825C36.3135 24.0083 36.9219 24.25 37.4719 24.55C38.0385 24.85 38.4802 25.2583 38.7969 25.775C39.1302 26.275 39.2885 26.925 39.2719 27.725C39.2385 28.4917 38.9885 29.1417 38.5219 29.675C38.0552 30.2083 37.4302 30.6167 36.6469 30.9C35.8802 31.1833 35.0219 31.325 34.0719 31.325ZM45.0404 31.25C43.9738 31.25 43.1571 31.0083 42.5904 30.525C42.0238 30.0417 41.6321 29.4167 41.4154 28.65C41.2154 27.8667 41.1154 27.0333 41.1154 26.15V20.85H42.2404V26.15C42.2404 26.9167 42.3154 27.6083 42.4654 28.225C42.6321 28.825 42.9321 29.3083 43.3654 29.675C43.8154 30.025 44.4654 30.2 45.3154 30.2C46.1154 30.2 46.7488 30.0167 47.2154 29.65C47.6988 29.2667 48.0571 28.7833 48.2904 28.2C48.5238 27.6 48.6571 26.9667 48.6904 26.3L48.7154 20.85H49.8654V31H48.9154L48.7154 28.575H48.6654C48.5654 28.925 48.3654 29.3083 48.0654 29.725C47.7654 30.1417 47.3654 30.5 46.8654 30.8C46.3821 31.1 45.7738 31.25 45.0404 31.25ZM56.8773 31.25C55.9107 31.25 55.0857 31.025 54.4023 30.575C53.7357 30.1083 53.2273 29.4833 52.8773 28.7C52.5273 27.9 52.3523 27.0167 52.3523 26.05C52.3523 25.0667 52.5273 24.1833 52.8773 23.4C53.244 22.6167 53.7607 22 54.4273 21.55C55.1107 21.0833 55.9357 20.85 56.9023 20.85C57.6023 20.85 58.1857 20.975 58.6523 21.225C59.119 21.4583 59.494 21.7417 59.7773 22.075C60.0773 22.3917 60.3023 22.7 60.4523 23C60.6023 23.2833 60.694 23.4833 60.7273 23.6H60.7773L60.8023 16.925H61.9523V31H61.0023L60.8023 28.525H60.7523C60.7023 28.6417 60.594 28.8417 60.4273 29.125C60.2773 29.4083 60.0523 29.7167 59.7523 30.05C59.4523 30.3833 59.0607 30.6667 58.5773 30.9C58.1107 31.1333 57.544 31.25 56.8773 31.25ZM57.0273 30.175C58.0607 30.175 58.9357 29.8167 59.6523 29.1C60.369 28.3833 60.7273 27.3667 60.7273 26.05C60.7273 24.7667 60.3857 23.7667 59.7023 23.05C59.0357 22.3167 58.2023 21.95 57.2023 21.95C56.369 21.95 55.6773 22.15 55.1273 22.55C54.5773 22.9333 54.1607 23.4417 53.8773 24.075C53.6107 24.6917 53.4773 25.35 53.4773 26.05C53.4773 26.75 53.6023 27.4167 53.8523 28.05C54.1023 28.6833 54.4857 29.2 55.0023 29.6C55.519 29.9833 56.194 30.175 57.0273 30.175ZM68.5908 31.25C67.5075 31.25 66.6075 30.9917 65.8908 30.475C65.1908 29.9583 64.6658 29.3 64.3158 28.5C63.9658 27.6833 63.7992 26.8417 63.8158 25.975C63.8158 25.075 63.9992 24.2333 64.3658 23.45C64.7325 22.6667 65.2658 22.0417 65.9658 21.575C66.6825 21.0917 67.5492 20.85 68.5658 20.85C69.8325 20.85 70.8742 21.2667 71.6908 22.1C72.5242 22.9167 72.9908 24.0167 73.0908 25.4C73.1075 25.4833 73.1158 25.5833 73.1158 25.7C73.1158 25.8167 73.1158 25.925 73.1158 26.025H64.9158C64.9158 27.3083 65.2325 28.3333 65.8658 29.1C66.4992 29.8667 67.4075 30.25 68.5908 30.25C69.4408 30.25 70.1742 30.025 70.7908 29.575C71.4242 29.125 71.8158 28.5167 71.9658 27.75H73.0908C72.8908 28.7833 72.3825 29.625 71.5658 30.275C70.7658 30.925 69.7742 31.25 68.5908 31.25ZM64.9908 25.275H71.9408C71.9242 24.8417 71.7992 24.3583 71.5658 23.825C71.3492 23.2917 70.9908 22.825 70.4908 22.425C70.0075 22.025 69.3658 21.825 68.5658 21.825C67.4658 21.825 66.6242 22.1667 66.0408 22.85C65.4575 23.5333 65.1075 24.3417 64.9908 25.275ZM75.1986 31V20.875H76.1486L76.3486 23.55H76.3986C76.432 23.4333 76.5153 23.2333 76.6486 22.95C76.782 22.6667 76.9903 22.3667 77.2736 22.05C77.557 21.7167 77.932 21.4333 78.3986 21.2C78.8653 20.9667 79.4486 20.85 80.1486 20.85C81.0153 20.85 81.707 21.0083 82.2236 21.325C82.7403 21.625 83.132 22.025 83.3986 22.525C83.6653 23.025 83.8403 23.575 83.9236 24.175C84.007 24.775 84.0486 25.375 84.0486 25.975V31H82.9236V25.95C82.9236 24.7167 82.707 23.7333 82.2736 23C81.857 22.2667 81.0736 21.9 79.9236 21.9C79.107 21.9 78.432 22.1 77.8986 22.5C77.382 22.8833 76.9903 23.4083 76.7236 24.075C76.4736 24.725 76.3486 25.4333 76.3486 26.2V31H75.1986ZM88.2373 31C87.704 31 87.3623 30.85 87.2123 30.55C87.0623 30.25 86.9873 29.8917 86.9873 29.475V21.775H85.3123V20.85C85.9123 20.85 86.329 20.8167 86.5623 20.75C86.7956 20.6667 86.9373 20.4417 86.9873 20.075C87.0373 19.7083 87.0623 19.0917 87.0623 18.225H88.0873V20.85H90.4623V21.775H88.0873V30.025H90.4623V31H88.2373ZM99.2076 31V16.925H101.183L106.358 30.45H106.408L111.533 16.925H113.508V31H112.358L112.408 17.575H112.358L107.208 31H105.483L100.358 17.575H100.308L100.358 31H99.2076ZM119.546 31.225C118.612 31.225 117.837 30.9917 117.221 30.525C116.604 30.0583 116.146 29.4333 115.846 28.65C115.546 27.85 115.396 26.9667 115.396 26C115.396 25 115.546 24.1083 115.846 23.325C116.162 22.525 116.629 21.9 117.246 21.45C117.862 20.9833 118.629 20.75 119.546 20.75C120.529 20.75 121.312 20.9917 121.896 21.475C122.479 21.9417 122.896 22.4833 123.146 23.1H123.196V20.85H124.346V31H123.396L123.196 28.9H123.146C122.879 29.5167 122.454 30.0583 121.871 30.525C121.287 30.9917 120.512 31.225 119.546 31.225ZM119.971 30.175C121.037 30.175 121.837 29.8083 122.371 29.075C122.904 28.3417 123.171 27.325 123.171 26.025C123.171 24.6417 122.887 23.6 122.321 22.9C121.771 22.2 120.987 21.85 119.971 21.85C118.787 21.85 117.921 22.25 117.371 23.05C116.821 23.8333 116.546 24.8167 116.546 26C116.546 27.2333 116.829 28.2417 117.396 29.025C117.962 29.7917 118.821 30.175 119.971 30.175ZM126.273 31V20.875H127.223L127.423 23.55H127.473C127.506 23.4333 127.59 23.2333 127.723 22.95C127.856 22.6667 128.065 22.3667 128.348 22.05C128.631 21.7167 129.006 21.4333 129.473 21.2C129.94 20.9667 130.523 20.85 131.223 20.85C132.09 20.85 132.781 21.0083 133.298 21.325C133.815 21.625 134.206 22.025 134.473 22.525C134.74 23.025 134.915 23.575 134.998 24.175C135.081 24.775 135.123 25.375 135.123 25.975V31H133.998V25.95C133.998 24.7167 133.781 23.7333 133.348 23C132.931 22.2667 132.148 21.9 130.998 21.9C130.181 21.9 129.506 22.1 128.973 22.5C128.456 22.8833 128.065 23.4083 127.798 24.075C127.548 24.725 127.423 25.4333 127.423 26.2V31H126.273ZM140.762 31.225C139.828 31.225 139.053 30.9917 138.437 30.525C137.82 30.0583 137.362 29.4333 137.062 28.65C136.762 27.85 136.612 26.9667 136.612 26C136.612 25 136.762 24.1083 137.062 23.325C137.378 22.525 137.845 21.9 138.462 21.45C139.078 20.9833 139.845 20.75 140.762 20.75C141.745 20.75 142.528 20.9917 143.112 21.475C143.695 21.9417 144.112 22.4833 144.362 23.1H144.412V20.85H145.562V31H144.612L144.412 28.9H144.362C144.095 29.5167 143.67 30.0583 143.087 30.525C142.503 30.9917 141.728 31.225 140.762 31.225ZM141.187 30.175C142.253 30.175 143.053 29.8083 143.587 29.075C144.12 28.3417 144.387 27.325 144.387 26.025C144.387 24.6417 144.103 23.6 143.537 22.9C142.987 22.2 142.203 21.85 141.187 21.85C140.003 21.85 139.137 22.25 138.587 23.05C138.037 23.8333 137.762 24.8167 137.762 26C137.762 27.2333 138.045 28.2417 138.612 29.025C139.178 29.7917 140.037 30.175 141.187 30.175ZM149.814 35V33.925H155.164V28.525H155.114C155.08 28.6417 154.98 28.8417 154.814 29.125C154.664 29.4083 154.439 29.7167 154.139 30.05C153.839 30.3833 153.447 30.6667 152.964 30.9C152.497 31.1333 151.93 31.25 151.264 31.25C150.297 31.25 149.472 31.0167 148.789 30.55C148.122 30.0833 147.614 29.4583 147.264 28.675C146.914 27.8917 146.739 27.0167 146.739 26.05C146.739 25.0667 146.914 24.1833 147.264 23.4C147.63 22.6167 148.147 22 148.814 21.55C149.497 21.0833 150.322 20.85 151.289 20.85C151.972 20.85 152.547 20.975 153.014 21.225C153.497 21.4583 153.88 21.7417 154.164 22.075C154.464 22.3917 154.68 22.7 154.814 23C154.964 23.2833 155.055 23.4833 155.089 23.6H155.139L155.164 20.85H156.339V33.175C156.339 33.7083 156.239 34.1417 156.039 34.475C155.855 34.825 155.464 35 154.864 35H149.814ZM151.414 30.175C152.43 30.175 153.297 29.8167 154.014 29.1C154.747 28.3833 155.114 27.3667 155.114 26.05C155.114 24.7667 154.772 23.7667 154.089 23.05C153.405 22.3167 152.564 21.95 151.564 21.95C150.73 21.95 150.039 22.15 149.489 22.55C148.939 22.9333 148.53 23.4417 148.264 24.075C147.997 24.6917 147.864 25.35 147.864 26.05C147.864 26.75 147.98 27.4167 148.214 28.05C148.464 28.6833 148.847 29.2 149.364 29.6C149.897 29.9833 150.58 30.175 151.414 30.175ZM163.122 31.25C162.039 31.25 161.139 30.9917 160.422 30.475C159.722 29.9583 159.197 29.3 158.847 28.5C158.497 27.6833 158.33 26.8417 158.347 25.975C158.347 25.075 158.53 24.2333 158.897 23.45C159.264 22.6667 159.797 22.0417 160.497 21.575C161.214 21.0917 162.08 20.85 163.097 20.85C164.364 20.85 165.405 21.2667 166.222 22.1C167.055 22.9167 167.522 24.0167 167.622 25.4C167.639 25.4833 167.647 25.5833 167.647 25.7C167.647 25.8167 167.647 25.925 167.647 26.025H159.447C159.447 27.3083 159.764 28.3333 160.397 29.1C161.03 29.8667 161.939 30.25 163.122 30.25C163.972 30.25 164.705 30.025 165.322 29.575C165.955 29.125 166.347 28.5167 166.497 27.75H167.622C167.422 28.7833 166.914 29.625 166.097 30.275C165.297 30.925 164.305 31.25 163.122 31.25ZM159.522 25.275H166.472C166.455 24.8417 166.33 24.3583 166.097 23.825C165.88 23.2917 165.522 22.825 165.022 22.425C164.539 22.025 163.897 21.825 163.097 21.825C161.997 21.825 161.155 22.1667 160.572 22.85C159.989 23.5333 159.639 24.3417 159.522 25.275ZM169.73 31V20.85H170.68L170.78 23.55H170.83C170.88 23.4 170.963 23.1833 171.08 22.9C171.213 22.6 171.405 22.3 171.655 22C171.905 21.6833 172.238 21.4167 172.655 21.2C173.072 20.9667 173.588 20.85 174.205 20.85C174.872 20.85 175.405 20.9833 175.805 21.25C176.222 21.5 176.547 21.8333 176.78 22.25C177.013 22.6667 177.18 23.1 177.28 23.55H177.33C177.38 23.4 177.472 23.1833 177.605 22.9C177.755 22.6 177.963 22.3 178.23 22C178.513 21.6833 178.872 21.4167 179.305 21.2C179.738 20.9667 180.263 20.85 180.88 20.85C181.547 20.85 182.088 20.9833 182.505 21.25C182.922 21.5167 183.247 21.8583 183.48 22.275C183.713 22.675 183.88 23.1083 183.98 23.575C184.08 24.0417 184.138 24.4917 184.155 24.925C184.172 25.3417 184.18 25.6917 184.18 25.975V31H183.155V25.95C183.155 25.6667 183.138 25.3083 183.105 24.875C183.088 24.425 182.997 23.975 182.83 23.525C182.68 23.0583 182.43 22.675 182.08 22.375C181.73 22.0583 181.23 21.9 180.58 21.9C179.863 21.9 179.28 22.1 178.83 22.5C178.38 22.9 178.038 23.425 177.805 24.075C177.588 24.725 177.48 25.4333 177.48 26.2V31H176.455V25.95C176.455 25.6667 176.438 25.3083 176.405 24.875C176.388 24.425 176.297 23.975 176.13 23.525C175.98 23.0583 175.73 22.675 175.38 22.375C175.03 22.0583 174.53 21.9 173.88 21.9C173.163 21.9 172.58 22.1 172.13 22.5C171.68 22.9 171.338 23.425 171.105 24.075C170.888 24.725 170.78 25.4333 170.78 26.2V31H169.73ZM190.783 31.25C189.7 31.25 188.8 30.9917 188.083 30.475C187.383 29.9583 186.858 29.3 186.508 28.5C186.158 27.6833 185.992 26.8417 186.008 25.975C186.008 25.075 186.192 24.2333 186.558 23.45C186.925 22.6667 187.458 22.0417 188.158 21.575C188.875 21.0917 189.742 20.85 190.758 20.85C192.025 20.85 193.067 21.2667 193.883 22.1C194.717 22.9167 195.183 24.0167 195.283 25.4C195.3 25.4833 195.308 25.5833 195.308 25.7C195.308 25.8167 195.308 25.925 195.308 26.025H187.108C187.108 27.3083 187.425 28.3333 188.058 29.1C188.692 29.8667 189.6 30.25 190.783 30.25C191.633 30.25 192.367 30.025 192.983 29.575C193.617 29.125 194.008 28.5167 194.158 27.75H195.283C195.083 28.7833 194.575 29.625 193.758 30.275C192.958 30.925 191.967 31.25 190.783 31.25ZM187.183 25.275H194.133C194.117 24.8417 193.992 24.3583 193.758 23.825C193.542 23.2917 193.183 22.825 192.683 22.425C192.2 22.025 191.558 21.825 190.758 21.825C189.658 21.825 188.817 22.1667 188.233 22.85C187.65 23.5333 187.3 24.3417 187.183 25.275ZM197.391 31V20.875H198.341L198.541 23.55H198.591C198.624 23.4333 198.708 23.2333 198.841 22.95C198.974 22.6667 199.183 22.3667 199.466 22.05C199.749 21.7167 200.124 21.4333 200.591 21.2C201.058 20.9667 201.641 20.85 202.341 20.85C203.208 20.85 203.899 21.0083 204.416 21.325C204.933 21.625 205.324 22.025 205.591 22.525C205.858 23.025 206.033 23.575 206.116 24.175C206.199 24.775 206.241 25.375 206.241 25.975V31H205.116V25.95C205.116 24.7167 204.899 23.7333 204.466 23C204.049 22.2667 203.266 21.9 202.116 21.9C201.299 21.9 200.624 22.1 200.091 22.5C199.574 22.8833 199.183 23.4083 198.916 24.075C198.666 24.725 198.541 25.4333 198.541 26.2V31H197.391ZM210.43 31C209.896 31 209.555 30.85 209.405 30.55C209.255 30.25 209.18 29.8917 209.18 29.475V21.775H207.505V20.85C208.105 20.85 208.521 20.8167 208.755 20.75C208.988 20.6667 209.13 20.4417 209.18 20.075C209.23 19.7083 209.255 19.0917 209.255 18.225H210.28V20.85H212.655V21.775H210.28V30.025H212.655V31H210.43ZM145.815 65.325C144.848 65.325 143.915 65.1667 143.015 64.85C142.132 64.5333 141.407 64.0417 140.84 63.375C140.273 62.6917 139.973 61.8083 139.94 60.725H141.09C141.09 60.775 141.107 60.9333 141.14 61.2C141.173 61.45 141.257 61.75 141.39 62.1C141.54 62.4333 141.782 62.7667 142.115 63.1C142.465 63.4333 142.94 63.7167 143.54 63.95C144.14 64.1667 144.923 64.275 145.89 64.275C146.757 64.275 147.448 64.175 147.965 63.975C148.498 63.7583 148.898 63.5 149.165 63.2C149.432 62.9 149.607 62.6083 149.69 62.325C149.79 62.025 149.848 61.8 149.865 61.65C149.882 61.0167 149.715 60.5083 149.365 60.125C149.032 59.725 148.582 59.4083 148.015 59.175C147.465 58.925 146.848 58.7167 146.165 58.55C145.498 58.3833 144.823 58.2083 144.14 58.025C143.473 57.825 142.857 57.575 142.29 57.275C141.74 56.975 141.298 56.5833 140.965 56.1C140.632 55.6167 140.482 54.9833 140.515 54.2C140.548 53.4667 140.798 52.8417 141.265 52.325C141.748 51.7917 142.382 51.3833 143.165 51.1C143.948 50.8167 144.823 50.675 145.79 50.675C146.723 50.675 147.582 50.8417 148.365 51.175C149.148 51.5083 149.765 52.0083 150.215 52.675C150.682 53.3417 150.898 54.175 150.865 55.175H149.74C149.757 54.475 149.623 53.9 149.34 53.45C149.073 53 148.723 52.65 148.29 52.4C147.857 52.15 147.407 51.9833 146.94 51.9C146.473 51.8 146.057 51.75 145.69 51.75C144.54 51.75 143.59 51.9917 142.84 52.475C142.09 52.9417 141.707 53.5417 141.69 54.275C141.673 54.9083 141.832 55.4167 142.165 55.8C142.515 56.1833 142.965 56.4917 143.515 56.725C144.082 56.9417 144.698 57.1333 145.365 57.3C146.048 57.4667 146.723 57.6417 147.39 57.825C148.057 58.0083 148.665 58.25 149.215 58.55C149.782 58.85 150.223 59.2583 150.54 59.775C150.873 60.275 151.032 60.925 151.015 61.725C150.982 62.4917 150.732 63.1417 150.265 63.675C149.798 64.2083 149.173 64.6167 148.39 64.9C147.623 65.1833 146.765 65.325 145.815 65.325ZM157.384 65.25C155.8 65.25 154.609 64.7667 153.809 63.8C153.025 62.8167 152.634 61.575 152.634 60.075C152.634 58.5417 153.034 57.2917 153.834 56.325C154.634 55.3417 155.817 54.85 157.384 54.85C158.917 54.85 160.084 55.3333 160.884 56.3C161.7 57.25 162.109 58.5083 162.109 60.075C162.109 61.0583 161.934 61.9417 161.584 62.725C161.25 63.4917 160.734 64.1083 160.034 64.575C159.35 65.025 158.467 65.25 157.384 65.25ZM157.384 64.225C158.317 64.225 159.042 64.0167 159.559 63.6C160.075 63.1833 160.434 62.6583 160.634 62.025C160.85 61.375 160.959 60.7167 160.959 60.05C160.959 59.3667 160.85 58.7083 160.634 58.075C160.434 57.425 160.075 56.8917 159.559 56.475C159.042 56.0417 158.317 55.825 157.384 55.825C156.45 55.825 155.725 56.0417 155.209 56.475C154.692 56.8917 154.325 57.425 154.109 58.075C153.892 58.7083 153.784 59.3667 153.784 60.05C153.784 60.7167 153.892 61.375 154.109 62.025C154.325 62.6583 154.692 63.1833 155.209 63.6C155.725 64.0167 156.45 64.225 157.384 64.225ZM165.138 65.075V55.775H163.488V54.85H165.138V52.325C165.138 51.925 165.213 51.575 165.363 51.275C165.53 50.975 165.872 50.825 166.388 50.825H169.563V51.775H166.313V54.85H169.363V55.775H166.313V65.075H165.138ZM173.54 65C173.007 65 172.665 64.85 172.515 64.55C172.365 64.25 172.29 63.8917 172.29 63.475V55.775H170.615V54.85C171.215 54.85 171.632 54.8167 171.865 54.75C172.098 54.6667 172.24 54.4417 172.29 54.075C172.34 53.7083 172.365 53.0917 172.365 52.225H173.39V54.85H175.765V55.775H173.39V64.025H175.765V65H173.54ZM179.908 65L177.008 55.175V54.85H178.083L180.683 64.025H180.733L183.558 54.85H184.608L187.483 64.025H187.533L190.083 54.85H191.158V55.175L188.308 65H186.658L184.108 56.85H184.058L181.533 65H179.908ZM196.206 65.225C195.273 65.225 194.498 64.9917 193.881 64.525C193.264 64.0583 192.806 63.4333 192.506 62.65C192.206 61.85 192.056 60.9667 192.056 60C192.056 59 192.206 58.1083 192.506 57.325C192.823 56.525 193.289 55.9 193.906 55.45C194.523 54.9833 195.289 54.75 196.206 54.75C197.189 54.75 197.973 54.9917 198.556 55.475C199.139 55.9417 199.556 56.4833 199.806 57.1H199.856V54.85H201.006V65H200.056L199.856 62.9H199.806C199.539 63.5167 199.114 64.0583 198.531 64.525C197.948 64.9917 197.173 65.225 196.206 65.225ZM196.631 64.175C197.698 64.175 198.498 63.8083 199.031 63.075C199.564 62.3417 199.831 61.325 199.831 60.025C199.831 58.6417 199.548 57.6 198.981 56.9C198.431 56.2 197.648 55.85 196.631 55.85C195.448 55.85 194.581 56.25 194.031 57.05C193.481 57.8333 193.206 58.8167 193.206 60C193.206 61.2333 193.489 62.2417 194.056 63.025C194.623 63.7917 195.481 64.175 196.631 64.175ZM203.258 65V54.85H204.233L204.383 57.45C204.55 56.7333 204.941 56.1167 205.558 55.6C206.175 55.0833 207.041 54.8333 208.158 54.85H208.708V56.125H208.158C207.025 56.125 206.191 56.3083 205.658 56.675C205.125 57.025 204.775 57.5 204.608 58.1C204.458 58.7 204.383 59.3667 204.383 60.1V65H203.258ZM214.367 65.25C213.284 65.25 212.384 64.9917 211.667 64.475C210.967 63.9583 210.442 63.3 210.092 62.5C209.742 61.6833 209.576 60.8417 209.592 59.975C209.592 59.075 209.776 58.2333 210.142 57.45C210.509 56.6667 211.042 56.0417 211.742 55.575C212.459 55.0917 213.326 54.85 214.342 54.85C215.609 54.85 216.651 55.2667 217.467 56.1C218.301 56.9167 218.767 58.0167 218.867 59.4C218.884 59.4833 218.892 59.5833 218.892 59.7C218.892 59.8167 218.892 59.925 218.892 60.025H210.692C210.692 61.3083 211.009 62.3333 211.642 63.1C212.276 63.8667 213.184 64.25 214.367 64.25C215.217 64.25 215.951 64.025 216.567 63.575C217.201 63.125 217.592 62.5167 217.742 61.75H218.867C218.667 62.7833 218.159 63.625 217.342 64.275C216.542 64.925 215.551 65.25 214.367 65.25ZM210.767 59.275H217.717C217.701 58.8417 217.576 58.3583 217.342 57.825C217.126 57.2917 216.767 56.825 216.267 56.425C215.784 56.025 215.142 55.825 214.342 55.825C213.242 55.825 212.401 56.1667 211.817 56.85C211.234 57.5333 210.884 58.3417 210.767 59.275Z"
                            fill="black" />
                        <path d="M0 77V0H90.5L158.5 77H0Z" fill="#4CBBD6" fill-opacity="0.2" />
                    </g>
                    <defs>
                        <clipPath id="clip0">
                            <rect width="250" height="45" fill="white" />
                        </clipPath>
                    </defs>
                </svg>